<?xml version="1.0" encoding="utf-8"?>
<!-- www.vectorico.com  -->
<svg version="1.1" id="Pinterest" xmlns="http://www.w3.org/2000/svg" xmlns:xlink="http://www.w3.org/1999/xlink" x="0px" y="0px"
	 viewBox="0 0 64 64" style="enable-background:new 0 0 64 64;" xml:space="preserve">
<style type="text/css">
	.st0{fill:#BD081C;}
	.st1{fill:#FFFFFF;}
</style>
<rect class="st0" width="64" height="64"/>
<path class="st1" d="M32,7C18.2,7,7,18.2,7,32c0,10.6,6.6,19.6,15.9,23.3c-0.2-2-0.4-5,0.1-7.2c0.5-2,2.9-12.4,2.9-12.4
	s-0.7-1.5-0.7-3.7c0-3.5,2-6.1,4.5-6.1c2.1,0,3.2,1.6,3.2,3.5c0,2.1-1.4,5.4-2.1,8.3c-0.6,2.5,1.2,4.5,3.7,4.5
	c4.4,0,7.9-4.7,7.9-11.4c0-6-4.3-10.2-10.4-10.2c-7.1,0-11.3,5.3-11.3,10.8c0,2.1,0.8,4.5,1.9,5.7c0.2,0.2,0.2,0.5,0.2,0.7
	c-0.2,0.8-0.6,2.5-0.7,2.8c-0.1,0.5-0.4,0.6-0.8,0.3c-3.1-1.5-5.1-6-5.1-9.7c0-7.9,5.7-15.1,16.5-15.1c8.7,0,15.4,6.2,15.4,14.4
	c0,8.6-5.4,15.6-13,15.6c-2.5,0-4.9-1.3-5.7-2.9c0,0-1.3,4.8-1.6,5.9c-0.6,2.2-2.1,4.9-3.1,6.6c2.3,0.7,4.8,1.1,7.4,1.1
	c13.8,0,25-11.2,25-25C57,18.2,45.8,7,32,7z"/>
</svg>
